<?xml version="1.0" encoding="UTF-8"?>
<!DOCTYPE svg PUBLIC "-//W3C//DTD SVG 1.1//EN" "http://www.w3.org/Graphics/SVG/1.1/DTD/svg11.dtd">
<!-- Creator: CorelDRAW 2020 (64 Bit Versão de avaliação) -->
<svg xmlns="http://www.w3.org/2000/svg" xml:space="preserve" width="600px" height="92px" version="1.1" style="shape-rendering:geometricPrecision; text-rendering:geometricPrecision; image-rendering:optimizeQuality; fill-rule:evenodd; clip-rule:evenodd"
viewBox="0 0 599.97 91.55"
 xmlns:xlink="http://www.w3.org/1999/xlink"
 xmlns:xodm="http://www.corel.com/coreldraw/odm/2003">
 <defs>
  <style type="text/css">
   <![CDATA[
    .fil0 {fill:#1F6A3F}
    .fil1 {fill:#206B40}
    .fil2 {fill:#9DD3AF}
   ]]>
  </style>
 </defs>
 <g id="Camada_x0020_1">
  <metadata id="CorelCorpID_0Corel-Layer"/>
  <g id="_1967407670016">
   <path class="fil0" d="M301.16 91.55l27.67 0 -0.29 -68 9.62 16.87c8.94,15.98 20.75,35.64 28.94,51.13l23.56 0c0.25,-1.09 8.1,-14.65 9.31,-16.88l28.66 -50.82 0 67.7 27.67 0 0 -91.55 -50.63 0c-0.47,2.01 -25.9,49.55 -26.5,52.11 -1.21,-0.33 -0.81,-0.45 -2.06,-2.95l-24.61 -47.8c-0.4,-0.76 -0.4,-1.36 -1.29,-1.36l-50.05 0 0 91.55z"/>
   <path class="fil0" d="M108.04 68l-38.27 0 0 -45.04 42.1 0c5.95,0 15,0.11 18.3,2.6 5.98,4.5 4.96,16.89 4.96,24.49 0,3.24 -0.43,7.48 -1.21,9.98 -0.91,2.91 -2.24,4.91 -5.13,6.05 -4.46,1.76 -14.45,1.92 -20.75,1.92zm-65.94 23.55l69.77 0c13.37,0 31.12,-0.22 39.1,-5.35 10.25,-6.59 11.83,-20.57 11.83,-32.92 0,-11.83 1.48,-28.78 -4.02,-39.84 -5.61,-11.26 -18.67,-13.44 -31.31,-13.44l-85.37 0 0 91.55z"/>
   <polygon class="fil1" points="190.76,34.44 169.86,34.44 169.86,54.76 190.76,54.76 190.76,91.55 292.62,91.55 292.62,69.18 218.44,69.18 218.44,54.76 239.04,54.76 239.04,34.44 218.44,34.44 218.44,21.78 292.03,21.78 292.03,0 190.76,0 "/>
   <polygon class="fil0" points="460.13,91.55 492.22,91.55 530.2,22.08 567.88,91.55 599.97,91.55 552.28,0 508.41,0 "/>
   <polygon class="fil0" points="0,91.55 29.44,91.55 29.44,0 0,0 "/>
   <path class="fil2" d="M498.4 91.55l63.3 0 -31.5 -60.64c-10.68,20.23 -21.31,40.32 -31.8,60.64z"/>
  </g>
 </g>
</svg>
